USFL
nRows=108
nColumns=2
inDegrees=yes
endheader
time	soleus_r	
2.64819	 44.091935	
2.71976	 44.126870	
2.79133	 44.059840	
2.8629	 44.047968	
2.93448	 43.997615	
3.00605	 43.998829	
3.07762	 43.910344	
3.14919	 43.984872	
3.22077	 43.992792	
3.29234	 44.019410	
3.36391	 43.931006	
3.43548	 43.858281	
3.50706	 43.861731	
3.57863	 43.811909	
3.6502	 44.051318	
3.72177	 44.005195	
3.79335	 43.972570	
3.86492	 43.868576	
3.93649	 43.842847	
4.00806	 43.765238	
4.07964	 43.832408	
4.15121	 43.918597	
4.22278	 43.928404	
4.29435	 43.880473	
4.36593	 43.855264	
4.4375	 43.720709	
4.50907	 43.850902	
4.58065	 43.793424	
4.65222	 43.775108	
4.72379	 43.837390	
4.79536	 43.744162	
4.86694	 43.705556	
4.93851	 43.647546	
5.01008	 43.490664	
5.08165	 42.992001	
5.15323	 40.183166	
5.2248	 40.359083	
5.29637	 33.772083	
5.36794	 30.126210	
5.43952	 27.576927	
5.51109	 27.155629	
5.58266	 27.043942	
5.65423	 27.485382	
5.72581	 26.400978	
5.79738	 26.133335	
5.86895	 25.998042	
5.94052	 26.287007	
6.0121	 26.053991	
6.08367	 26.186993	
6.15524	 26.369271	
6.22681	 26.491413	
6.29839	 26.865687	
6.36996	 26.226414	
6.44153	 25.611587	
6.5131	 25.112016	
6.58468	 25.142031	
6.65625	 24.643895	
6.72782	 25.067228	
6.7994	 24.789891	
6.87097	 25.129866	
6.94254	 25.211016	
7.01411	 25.278136	
7.08569	 25.081398	
7.15726	 25.135314	
7.22883	 24.941016	
7.3004	 24.456103	
7.37198	 24.162330	
7.44355	 23.665275	
7.51512	 23.861929	
7.58669	 24.194161	
7.65827	 24.473030	
7.72984	 24.410602	
7.80141	 24.437830	
7.87298	 24.111910	
7.94456	 24.182329	
8.01613	 24.150992	
8.0877	 24.028251	
8.15927	 23.746332	
8.23085	 23.535190	
8.30242	 23.686593	
8.37399	 23.689066	
8.44556	 23.797468	
8.51714	 23.678290	
8.58871	 23.795335	
8.66028	 23.711228	
8.73185	 24.059963	
8.80343	 23.838113	
8.875	 23.831583	
8.94657	 23.795975	
9.01815	 23.884997	
9.08972	 23.715754	
9.16129	 23.809344	
9.23286	 23.770739	
9.30444	 23.803627	
9.37601	 23.885255	
9.44758	 23.941660	
9.51915	 23.997400	
9.59073	 23.879807	
9.6623	 24.101811	
9.73387	 24.159060	
9.80544	 24.370036	
9.87702	 28.331859	
9.94859	 32.851714	
10.0202	 33.379591	
10.0917	 33.458864	
10.1633	 33.678320	
10.2349	 34.083420	
10.3065	 34.110517	
